# xmcd
#
# Track frame offsets:
#	150
#	16657
#	32413
#	45769
#	67371
#	83498
#	100005
#	115761
#	128817
#	146673
#	165729
#	182986
#
# Disc length: 2647 seconds
#
# Revision: 0
# Processed by: cddbd v1.5.1PL2 Copyright (c) Steve Scherf et al.
# Submitted via: audiograbber 1.83.01
#
DISCID=910a550c
DTITLE=Pat Green - Lucky Ones
DYEAR=1900
DGENRE=
TTITLE0=Baby Doll
TTITLE1=Lucky You
TTITLE2=Between Texas And Mexico
TTITLE3=Don't Break My Heart
TTITLE4=My Little Heaven
TTITLE5=College
TTITLE6=One Thing
TTITLE7=Over And Over
TTITLE8=Headed Home (Long Way To Go)
TTITLE9=Temporary Angel
TTITLE10=It's Time
TTITLE11=Sweet Revenge
EXTD=
EXTT0=
EXTT1=
EXTT2=
EXTT3=
EXTT4=
EXTT5=
EXTT6=
EXTT7=
EXTT8=
EXTT9=
EXTT10=
EXTT11=
PLAYORDER=
